<svg width="48" height="48" viewBox="0 0 48 48" fill="none" xmlns="http://www.w3.org/2000/svg" xmlns:xlink="http://www.w3.org/1999/xlink">
<path d="M14,6L34,6L34,2L14,2L14,6ZM34,6C38.418,6 42,9.582 42,14L46,14C46,7.373 40.627,2 34,2L34,6ZM42,14L42,34L46,34L46,14L42,14ZM42,34C42,38.418 38.418,42 34,42L34,46C40.627,46 46,40.627 46,34L42,34ZM34,42L14,42L14,46L34,46L34,42ZM14,42C9.582,42 6,38.418 6,34L2,34C2,40.627 7.373,46 14,46L14,42ZM6,34L6,14L2,14L2,34L6,34ZM6,14C6,9.582 9.582,6 14,6L14,2C7.373,2 2,7.373 2,14L6,14Z" fill="#FFFFFF"/>
<path d="M31.999,22.74L30.021,23.033L31.999,22.74ZM25.259,16L24.966,17.978L25.259,16ZM30.021,23.033C30.206,24.281 29.993,25.556 29.412,26.677L32.962,28.519C33.931,26.652 34.286,24.527 33.978,22.446L30.021,23.033ZM29.412,26.677C28.83,27.797 27.911,28.705 26.783,29.273L28.582,32.845C30.461,31.9 31.993,30.386 32.962,28.519L29.412,26.677ZM26.783,29.273C25.656,29.84 24.379,30.037 23.133,29.837L22.497,33.786C24.574,34.12 26.703,33.791 28.582,32.845L26.783,29.273ZM23.133,29.837C21.887,29.636 20.736,29.048 19.843,28.156L17.015,30.984C18.502,32.471 20.421,33.452 22.497,33.786L23.133,29.837ZM19.843,28.156C18.951,27.263 18.363,26.112 18.162,24.866L14.213,25.502C14.547,27.578 15.528,29.497 17.015,30.984L19.843,28.156ZM18.162,24.866C17.962,23.62 18.159,22.343 18.727,21.216L15.154,19.417C14.208,21.296 13.879,23.425 14.213,25.502L18.162,24.866ZM18.727,21.216C19.294,20.088 20.202,19.169 21.323,18.587L19.48,15.037C17.613,16.006 16.099,17.538 15.154,19.417L18.727,21.216ZM21.323,18.587C22.443,18.006 23.718,17.793 24.966,17.978L25.553,14.021C23.472,13.713 21.347,14.068 19.48,15.037L21.323,18.587ZM24.966,17.978C26.239,18.167 27.418,18.76 28.329,19.67L31.157,16.842C29.64,15.325 27.675,14.336 25.553,14.021L24.966,17.978ZM28.329,19.67C29.239,20.581 29.832,21.76 30.021,23.033L33.978,22.446C33.663,20.324 32.674,18.359 31.157,16.842L28.329,19.67Z" fill="#FFFFFF"/>
<line x1="35" y1="11" x2="35.02" y2="11" stroke="#FFFFFF" stroke-width="2" stroke-miterlimit="3.999327" stroke-linecap="round" stroke-linejoin="round"/>
</svg>
