<svg width="48" height="48" viewBox="0 0 48 48" fill="none" xmlns="http://www.w3.org/2000/svg" xmlns:xlink="http://www.w3.org/1999/xlink">
<path d="M44,42L44,44C45.105,44 46,43.105 46,42L44,42ZM36,42L34,42C34,43.105 34.895,44 36,44L36,42ZM28,42L28,44C29.105,44 30,43.105 30,42L28,42ZM20,42L18,42C18,43.105 18.895,44 20,44L20,42ZM32,18C34.652,18 37.196,19.054 39.071,20.929L41.899,18.101C39.274,15.475 35.713,14 32,14L32,18ZM39.071,20.929C40.946,22.804 42,25.348 42,28L46,28C46,24.287 44.525,20.726 41.899,18.101L39.071,20.929ZM42,28L42,42L46,42L46,28L42,28ZM44,40L36,40L36,44L44,44L44,40ZM38,42L38,28L34,28L34,42L38,42ZM38,28C38,26.409 37.368,24.883 36.243,23.757L33.414,26.586C33.789,26.961 34,27.47 34,28L38,28ZM36.243,23.757C35.117,22.632 33.591,22 32,22L32,26C32.53,26 33.039,26.211 33.414,26.586L36.243,23.757ZM32,22C30.409,22 28.883,22.632 27.757,23.757L30.586,26.586C30.961,26.211 31.47,26 32,26L32,22ZM27.757,23.757C26.632,24.883 26,26.409 26,28L30,28C30,27.47 30.211,26.961 30.586,26.586L27.757,23.757ZM26,28L26,42L30,42L30,28L26,28ZM28,40L20,40L20,44L28,44L28,40ZM22,42L22,28L18,28L18,42L22,42ZM22,28C22,25.348 23.054,22.804 24.929,20.929L22.101,18.101C19.475,20.726 18,24.287 18,28L22,28ZM24.929,20.929C26.804,19.054 29.348,18 32,18L32,14C28.287,14 24.726,15.475 22.101,18.101L24.929,20.929Z" fill="#FFFFFF"/>
<path d="M4,18L4,16C2.895,16 2,16.895 2,18L4,18ZM12,18L14,18C14,16.895 13.105,16 12,16L12,18ZM12,42L12,44C13.105,44 14,43.105 14,42L12,42ZM4,42L2,42C2,43.105 2.895,44 4,44L4,42ZM4,20L12,20L12,16L4,16L4,20ZM10,18L10,42L14,42L14,18L10,18ZM12,40L4,40L4,44L12,44L12,40ZM6,42L6,18L2,18L2,42L6,42Z" fill="#FFFFFF"/>
<path d="M10,8C10,9.105 9.105,10 8,10L8,14C11.314,14 14,11.314 14,8L10,8ZM8,10C6.895,10 6,9.105 6,8L2,8C2,11.314 4.686,14 8,14L8,10ZM6,8C6,6.895 6.895,6 8,6L8,2C4.686,2 2,4.686 2,8L6,8ZM8,6C9.105,6 10,6.895 10,8L14,8C14,4.686 11.314,2 8,2L8,6Z" fill="#FFFFFF"/>
</svg>
