<svg width="30" height="30" viewBox="0 0 30 30" fill="none" xmlns="http://www.w3.org/2000/svg">
<g id="pencil-square">
<path id="Vector" d="M21.0795 5.60857L23.1882 3.49857C23.6278 3.05897 24.224 2.81201 24.8457 2.81201C25.4674 2.81201 26.0636 3.05897 26.5032 3.49857C26.9428 3.93817 27.1898 4.53439 27.1898 5.15607C27.1898 5.77775 26.9428 6.37397 26.5032 6.81357L13.2295 20.0873C12.5686 20.7478 11.7537 21.2332 10.8582 21.4998L7.50195 22.4998L8.50195 19.1436C8.76855 18.2481 9.254 17.4332 9.91445 16.7723L21.0795 5.60857ZM21.0795 5.60857L24.377 8.90607M22.502 17.4998V23.4373C22.502 24.1832 22.2056 24.8986 21.6782 25.4261C21.1507 25.9535 20.4354 26.2498 19.6895 26.2498H6.56445C5.81853 26.2498 5.10316 25.9535 4.57572 25.4261C4.04827 24.8986 3.75195 24.1832 3.75195 23.4373V10.3123C3.75195 9.5664 4.04827 8.85103 4.57572 8.32358C5.10316 7.79614 5.81853 7.49982 6.56445 7.49982H12.502" stroke="black" stroke-width="1.5" stroke-linecap="round" stroke-linejoin="round"/>
</g>
</svg>
