<svg width="26" height="44" viewBox="0 0 26 44" fill="none" xmlns="http://www.w3.org/2000/svg" xmlns:xlink="http://www.w3.org/1999/xlink">
<path d="M24,2L26,2C26,0.895 25.105,0 24,0L24,2ZM18,2L18,0L18,2ZM8,12L6,12L8,12ZM8,18L8,20C9.105,20 10,19.105 10,18L8,18ZM2,18L2,16C0.895,16 0,16.895 0,18L2,18ZM2,26L0,26C0,27.105 0.895,28 2,28L2,26ZM8,26L10,26C10,24.895 9.105,24 8,24L8,26ZM8,42L6,42C6,43.105 6.895,44 8,44L8,42ZM16,42L16,44C17.105,44 18,43.105 18,42L16,42ZM16,26L16,24C14.895,24 14,24.895 14,26L16,26ZM22,26L22,28C22.918,28 23.718,27.375 23.94,26.485L22,26ZM24,18L25.94,18.485C26.09,17.888 25.955,17.255 25.576,16.769C25.197,16.284 24.616,16 24,16L24,18ZM16,18L14,18C14,19.105 14.895,20 16,20L16,18ZM18,10L18,12L18,10ZM24,10L24,12C25.105,12 26,11.105 26,10L24,10ZM24,0L18,0L18,4L24,4L24,0ZM18,0C14.817,0 11.765,1.264 9.515,3.515L12.343,6.343C13.843,4.843 15.878,4 18,4L18,0ZM9.515,3.515C7.264,5.765 6,8.817 6,12L10,12C10,9.878 10.843,7.843 12.343,6.343L9.515,3.515ZM6,12L6,18L10,18L10,12L6,12ZM8,16L2,16L2,20L8,20L8,16ZM0,18L0,26L4,26L4,18L0,18ZM2,28L8,28L8,24L2,24L2,28ZM6,26L6,42L10,42L10,26L6,26ZM8,44L16,44L16,40L8,40L8,44ZM18,42L18,26L14,26L14,42L18,42ZM16,28L22,28L22,24L16,24L16,28ZM23.94,26.485L25.94,18.485L22.06,17.515L20.06,25.515L23.94,26.485ZM24,16L16,16L16,20L24,20L24,16ZM18,18L18,12L14,12L14,18L18,18ZM18,12L18,12L15.172,9.172C14.421,9.922 14,10.939 14,12L18,12ZM18,12L18,12L18,8C16.939,8 15.922,8.421 15.172,9.172L18,12ZM18,12L24,12L24,8L18,8L18,12ZM26,10L26,2L22,2L22,10L26,10Z" fill="#FFFFFF"/>
</svg>
